<mxfile host="www.draw.io" modified="2020-01-30T00:14:38.496Z" agent="Mozilla/5.0 (Macintosh; Intel Mac OS X 10_15_2) AppleWebKit/537.36 (KHTML, like Gecko) Chrome/79.0.3945.130 Safari/537.36" etag="HR_Rz0XGjcU1IU_vqKU2" version="12.6.1" type="github" pages="2">
  <diagram id="-MNmQAJdXIxdF0hV3k_a" name="Page-1">
    <mxGraphModel dx="2331" dy="764" grid="1" gridSize="10" guides="1" tooltips="1" connect="1" arrows="1" fold="1" page="1" pageScale="1" pageWidth="1100" pageHeight="850" math="0" shadow="0">
      <root>
        <mxCell id="0"/>
        <mxCell id="1" parent="0"/>
        <mxCell id="GTpEuiMnmMogO06giJks-11" value="" style="rounded=0;whiteSpace=wrap;html=1;" parent="1" vertex="1">
          <mxGeometry x="170" y="182" width="160" height="460" as="geometry"/>
        </mxCell>
        <mxCell id="BTNIQl1lcjPrq77fa2lV-5" value="" style="rounded=0;whiteSpace=wrap;html=1;" parent="1" vertex="1">
          <mxGeometry x="85" y="412" width="40" height="50" as="geometry"/>
        </mxCell>
        <mxCell id="BTNIQl1lcjPrq77fa2lV-1" value="" style="rounded=0;whiteSpace=wrap;html=1;" parent="1" vertex="1">
          <mxGeometry x="70" y="222" width="70" height="40" as="geometry"/>
        </mxCell>
        <mxCell id="BTNIQl1lcjPrq77fa2lV-2" value="" style="rounded=0;whiteSpace=wrap;html=1;" parent="1" vertex="1">
          <mxGeometry x="95" y="262" width="20" height="10" as="geometry"/>
        </mxCell>
        <mxCell id="BTNIQl1lcjPrq77fa2lV-3" value="" style="rounded=0;whiteSpace=wrap;html=1;snapToPoint=0;" parent="1" vertex="1">
          <mxGeometry x="87.5" y="414.5" width="35" height="43.5" as="geometry"/>
        </mxCell>
        <mxCell id="BTNIQl1lcjPrq77fa2lV-6" value="" style="rounded=0;whiteSpace=wrap;html=1;" parent="1" vertex="1">
          <mxGeometry x="95" y="325" width="20" height="30" as="geometry"/>
        </mxCell>
        <mxCell id="GTpEuiMnmMogO06giJks-6" value="" style="rounded=0;whiteSpace=wrap;html=1;" parent="1" vertex="1">
          <mxGeometry x="97.5" y="328" width="15" height="21" as="geometry"/>
        </mxCell>
        <mxCell id="GTpEuiMnmMogO06giJks-8" value="Welcome&lt;br&gt;Client" style="rounded=0;whiteSpace=wrap;html=1;" parent="1" vertex="1">
          <mxGeometry x="190" y="204.5" width="120" height="415" as="geometry"/>
        </mxCell>
        <mxCell id="GTpEuiMnmMogO06giJks-10" value="Spacewar&lt;br&gt;Client" style="rounded=0;whiteSpace=wrap;html=1;" parent="1" vertex="1">
          <mxGeometry x="200" y="492" width="100" height="110" as="geometry"/>
        </mxCell>
        <mxCell id="GTpEuiMnmMogO06giJks-12" value="Welcome&lt;br&gt;Server" style="rounded=0;whiteSpace=wrap;html=1;" parent="1" vertex="1">
          <mxGeometry x="550" y="182" width="120" height="100" as="geometry"/>
        </mxCell>
        <mxCell id="MLfxrH9U8GJCvspRP1UE-8" style="edgeStyle=orthogonalEdgeStyle;rounded=0;orthogonalLoop=1;jettySize=auto;html=1;exitX=0.5;exitY=1;exitDx=0;exitDy=0;entryX=0.5;entryY=0;entryDx=0;entryDy=0;" parent="1" source="GTpEuiMnmMogO06giJks-15" target="GTpEuiMnmMogO06giJks-20" edge="1">
          <mxGeometry relative="1" as="geometry"/>
        </mxCell>
        <mxCell id="GTpEuiMnmMogO06giJks-15" value="Lobby&lt;br&gt;Server" style="rounded=0;whiteSpace=wrap;html=1;" parent="1" vertex="1">
          <mxGeometry x="550" y="312" width="120" height="58" as="geometry"/>
        </mxCell>
        <mxCell id="GTpEuiMnmMogO06giJks-17" value="Spacewar&lt;br&gt;Server" style="rounded=0;whiteSpace=wrap;html=1;" parent="1" vertex="1">
          <mxGeometry x="550" y="502" width="120" height="90" as="geometry"/>
        </mxCell>
        <mxCell id="GTpEuiMnmMogO06giJks-20" value="Docker" style="rounded=0;whiteSpace=wrap;html=1;" parent="1" vertex="1">
          <mxGeometry x="550" y="389" width="120" height="33" as="geometry"/>
        </mxCell>
        <mxCell id="MLfxrH9U8GJCvspRP1UE-3" value="" style="endArrow=classic;html=1;exitX=0.5;exitY=1;exitDx=0;exitDy=0;entryX=0.5;entryY=0;entryDx=0;entryDy=0;" parent="1" source="GTpEuiMnmMogO06giJks-20" target="GTpEuiMnmMogO06giJks-17" edge="1">
          <mxGeometry width="50" height="50" relative="1" as="geometry">
            <mxPoint x="120" y="602" as="sourcePoint"/>
            <mxPoint x="170" y="552" as="targetPoint"/>
          </mxGeometry>
        </mxCell>
        <mxCell id="MLfxrH9U8GJCvspRP1UE-9" value="" style="shape=cylinder;whiteSpace=wrap;html=1;boundedLbl=1;backgroundOutline=1;" parent="1" vertex="1">
          <mxGeometry x="750" y="272" width="65" height="60" as="geometry"/>
        </mxCell>
        <mxCell id="MLfxrH9U8GJCvspRP1UE-11" value="Sessions&lt;br&gt;and&lt;br&gt;Telemetry" style="text;html=1;align=center;verticalAlign=middle;resizable=0;points=[];autosize=1;" parent="1" vertex="1">
          <mxGeometry x="817.5" y="278" width="70" height="50" as="geometry"/>
        </mxCell>
        <mxCell id="MLfxrH9U8GJCvspRP1UE-12" value="Desktop" style="text;html=1;strokeColor=none;fillColor=none;align=center;verticalAlign=middle;whiteSpace=wrap;rounded=0;" parent="1" vertex="1">
          <mxGeometry x="85" y="202" width="40" height="20" as="geometry"/>
        </mxCell>
        <mxCell id="MLfxrH9U8GJCvspRP1UE-13" value="Phone" style="text;html=1;strokeColor=none;fillColor=none;align=center;verticalAlign=middle;whiteSpace=wrap;rounded=0;" parent="1" vertex="1">
          <mxGeometry x="85" y="305" width="40" height="20" as="geometry"/>
        </mxCell>
        <mxCell id="MLfxrH9U8GJCvspRP1UE-15" value="Tablet" style="text;html=1;strokeColor=none;fillColor=none;align=center;verticalAlign=middle;whiteSpace=wrap;rounded=0;" parent="1" vertex="1">
          <mxGeometry x="82.5" y="392" width="40" height="20" as="geometry"/>
        </mxCell>
        <mxCell id="iC5oyhufUp80yWhtW3xy-1" value="" style="endArrow=classic;html=1;exitX=0.01;exitY=0.4;exitDx=0;exitDy=0;entryX=1.017;entryY=0.047;entryDx=0;entryDy=0;entryPerimeter=0;exitPerimeter=0;" parent="1" source="GTpEuiMnmMogO06giJks-12" target="GTpEuiMnmMogO06giJks-8" edge="1">
          <mxGeometry width="50" height="50" relative="1" as="geometry">
            <mxPoint x="120" y="612" as="sourcePoint"/>
            <mxPoint x="170" y="562" as="targetPoint"/>
          </mxGeometry>
        </mxCell>
        <mxCell id="iC5oyhufUp80yWhtW3xy-5" value="Browser" style="text;html=1;strokeColor=none;fillColor=none;align=center;verticalAlign=middle;whiteSpace=wrap;rounded=0;" parent="1" vertex="1">
          <mxGeometry x="180" y="182" width="40" height="20" as="geometry"/>
        </mxCell>
        <mxCell id="iC5oyhufUp80yWhtW3xy-6" value="GET spacewar.html" style="text;html=1;strokeColor=none;fillColor=none;align=center;verticalAlign=middle;whiteSpace=wrap;rounded=0;" parent="1" vertex="1">
          <mxGeometry x="385" y="182" width="110" height="20" as="geometry"/>
        </mxCell>
        <mxCell id="iC5oyhufUp80yWhtW3xy-10" value="spacewar.html&lt;br&gt;welcome_client.js" style="text;html=1;strokeColor=none;fillColor=none;align=center;verticalAlign=middle;whiteSpace=wrap;rounded=0;" parent="1" vertex="1">
          <mxGeometry x="415" y="232" width="40" height="20" as="geometry"/>
        </mxCell>
        <mxCell id="iC5oyhufUp80yWhtW3xy-14" value="GET lobby/ls, POST lobby/new&lt;br&gt;PUT lobby/play, DELETE lobby/rm" style="text;html=1;strokeColor=none;fillColor=none;align=center;verticalAlign=middle;whiteSpace=wrap;rounded=0;" parent="1" vertex="1">
          <mxGeometry x="310" y="305" width="250" height="40" as="geometry"/>
        </mxCell>
        <mxCell id="iC5oyhufUp80yWhtW3xy-15" value="" style="endArrow=classic;html=1;entryX=0.96;entryY=1.05;entryDx=0;entryDy=0;entryPerimeter=0;" parent="1" target="iC5oyhufUp80yWhtW3xy-14" edge="1">
          <mxGeometry width="50" height="50" relative="1" as="geometry">
            <mxPoint x="313" y="347" as="sourcePoint"/>
            <mxPoint x="120" y="562" as="targetPoint"/>
          </mxGeometry>
        </mxCell>
        <mxCell id="iC5oyhufUp80yWhtW3xy-16" value="JSON { g1 ... gN }" style="text;html=1;strokeColor=none;fillColor=none;align=center;verticalAlign=middle;whiteSpace=wrap;rounded=0;" parent="1" vertex="1">
          <mxGeometry x="357.5" y="349" width="162.5" height="20" as="geometry"/>
        </mxCell>
        <mxCell id="iC5oyhufUp80yWhtW3xy-17" value="" style="endArrow=classic;html=1;exitX=1.01;exitY=0.182;exitDx=0;exitDy=0;exitPerimeter=0;" parent="1" source="GTpEuiMnmMogO06giJks-10" edge="1">
          <mxGeometry width="50" height="50" relative="1" as="geometry">
            <mxPoint x="70" y="672" as="sourcePoint"/>
            <mxPoint x="550" y="512" as="targetPoint"/>
          </mxGeometry>
        </mxCell>
        <mxCell id="iC5oyhufUp80yWhtW3xy-18" value="Connect&amp;nbsp; srv:port_i" style="text;html=1;strokeColor=none;fillColor=none;align=center;verticalAlign=middle;whiteSpace=wrap;rounded=0;" parent="1" vertex="1">
          <mxGeometry x="375" y="492" width="120" height="20" as="geometry"/>
        </mxCell>
        <mxCell id="iC5oyhufUp80yWhtW3xy-23" value="State { ob1, ..., obK }" style="text;html=1;strokeColor=none;fillColor=none;align=center;verticalAlign=middle;whiteSpace=wrap;rounded=0;" parent="1" vertex="1">
          <mxGeometry x="355" y="532" width="140" height="20" as="geometry"/>
        </mxCell>
        <mxCell id="iC5oyhufUp80yWhtW3xy-26" value="" style="endArrow=classic;html=1;exitX=0;exitY=0.5;exitDx=0;exitDy=0;entryX=1;entryY=0.5;entryDx=0;entryDy=0;" parent="1" source="GTpEuiMnmMogO06giJks-17" target="GTpEuiMnmMogO06giJks-10" edge="1">
          <mxGeometry width="50" height="50" relative="1" as="geometry">
            <mxPoint x="70" y="672" as="sourcePoint"/>
            <mxPoint x="120" y="622" as="targetPoint"/>
          </mxGeometry>
        </mxCell>
        <mxCell id="iC5oyhufUp80yWhtW3xy-30" value="" style="endArrow=classic;html=1;entryX=0;entryY=0.25;entryDx=0;entryDy=0;" parent="1" target="GTpEuiMnmMogO06giJks-12" edge="1">
          <mxGeometry width="50" height="50" relative="1" as="geometry">
            <mxPoint x="332" y="207" as="sourcePoint"/>
            <mxPoint x="120" y="602" as="targetPoint"/>
          </mxGeometry>
        </mxCell>
        <mxCell id="iC5oyhufUp80yWhtW3xy-31" value="" style="endArrow=classic;html=1;entryX=0;entryY=0.75;entryDx=0;entryDy=0;exitX=1;exitY=0.691;exitDx=0;exitDy=0;exitPerimeter=0;" parent="1" source="GTpEuiMnmMogO06giJks-10" target="GTpEuiMnmMogO06giJks-17" edge="1">
          <mxGeometry width="50" height="50" relative="1" as="geometry">
            <mxPoint x="310" y="570" as="sourcePoint"/>
            <mxPoint x="120" y="662" as="targetPoint"/>
          </mxGeometry>
        </mxCell>
        <mxCell id="iC5oyhufUp80yWhtW3xy-32" value="Control { Right | Left | Burn&amp;nbsp; Fire }" style="text;html=1;strokeColor=none;fillColor=none;align=center;verticalAlign=middle;whiteSpace=wrap;rounded=0;" parent="1" vertex="1">
          <mxGeometry x="330" y="572" width="230" height="20" as="geometry"/>
        </mxCell>
        <mxCell id="iC5oyhufUp80yWhtW3xy-34" value="" style="endArrow=classic;startArrow=classic;html=1;exitX=1;exitY=0.5;exitDx=0;exitDy=0;entryX=0;entryY=0.5;entryDx=0;entryDy=0;" parent="1" source="GTpEuiMnmMogO06giJks-15" target="MLfxrH9U8GJCvspRP1UE-9" edge="1">
          <mxGeometry width="50" height="50" relative="1" as="geometry">
            <mxPoint x="730" y="412" as="sourcePoint"/>
            <mxPoint x="780" y="362" as="targetPoint"/>
            <Array as="points">
              <mxPoint x="710" y="341"/>
              <mxPoint x="710" y="302"/>
            </Array>
          </mxGeometry>
        </mxCell>
        <mxCell id="iC5oyhufUp80yWhtW3xy-35" value="" style="shape=cylinder;whiteSpace=wrap;html=1;boundedLbl=1;backgroundOutline=1;" parent="1" vertex="1">
          <mxGeometry x="790" y="372" width="70" height="60" as="geometry"/>
        </mxCell>
        <mxCell id="iC5oyhufUp80yWhtW3xy-36" value="Container Repository&lt;br&gt;(Docker Hub)" style="text;html=1;strokeColor=none;fillColor=none;align=center;verticalAlign=middle;whiteSpace=wrap;rounded=0;" parent="1" vertex="1">
          <mxGeometry x="850" y="389" width="100" height="20" as="geometry"/>
        </mxCell>
        <mxCell id="iC5oyhufUp80yWhtW3xy-38" value="" style="endArrow=classic;html=1;entryX=0;entryY=0.5;entryDx=0;entryDy=0;" parent="1" target="iC5oyhufUp80yWhtW3xy-35" edge="1">
          <mxGeometry width="50" height="50" relative="1" as="geometry">
            <mxPoint x="680" y="402" as="sourcePoint"/>
            <mxPoint x="750" y="362" as="targetPoint"/>
            <Array as="points">
              <mxPoint x="750" y="402"/>
            </Array>
          </mxGeometry>
        </mxCell>
        <mxCell id="iC5oyhufUp80yWhtW3xy-39" value="Pulls" style="text;html=1;strokeColor=none;fillColor=none;align=center;verticalAlign=middle;whiteSpace=wrap;rounded=0;" parent="1" vertex="1">
          <mxGeometry x="695" y="402" width="40" height="20" as="geometry"/>
        </mxCell>
        <mxCell id="iC5oyhufUp80yWhtW3xy-40" value="Spacewar&lt;br&gt;Client" style="rounded=0;whiteSpace=wrap;html=1;" parent="1" vertex="1">
          <mxGeometry x="887.5" y="492" width="100" height="100" as="geometry"/>
        </mxCell>
        <mxCell id="iC5oyhufUp80yWhtW3xy-42" value="" style="endArrow=classic;html=1;" parent="1" edge="1">
          <mxGeometry width="50" height="50" relative="1" as="geometry">
            <mxPoint x="886" y="516" as="sourcePoint"/>
            <mxPoint x="673" y="516" as="targetPoint"/>
          </mxGeometry>
        </mxCell>
        <mxCell id="iC5oyhufUp80yWhtW3xy-43" value="" style="endArrow=classic;html=1;entryX=-0.035;entryY=0.57;entryDx=0;entryDy=0;entryPerimeter=0;" parent="1" target="iC5oyhufUp80yWhtW3xy-40" edge="1">
          <mxGeometry width="50" height="50" relative="1" as="geometry">
            <mxPoint x="671" y="547" as="sourcePoint"/>
            <mxPoint x="800" y="547" as="targetPoint"/>
          </mxGeometry>
        </mxCell>
        <mxCell id="iC5oyhufUp80yWhtW3xy-44" value="" style="endArrow=classic;html=1;entryX=1;entryY=0.75;entryDx=0;entryDy=0;" parent="1" target="GTpEuiMnmMogO06giJks-17" edge="1">
          <mxGeometry width="50" height="50" relative="1" as="geometry">
            <mxPoint x="888" y="570" as="sourcePoint"/>
            <mxPoint x="170" y="662" as="targetPoint"/>
          </mxGeometry>
        </mxCell>
        <mxCell id="iC5oyhufUp80yWhtW3xy-45" value="Connect&amp;nbsp; srv:port_i" style="text;html=1;strokeColor=none;fillColor=none;align=center;verticalAlign=middle;whiteSpace=wrap;rounded=0;" parent="1" vertex="1">
          <mxGeometry x="730" y="498" width="120" height="20" as="geometry"/>
        </mxCell>
        <mxCell id="iC5oyhufUp80yWhtW3xy-46" value="State { ob1, ..., obK }" style="text;html=1;strokeColor=none;fillColor=none;align=center;verticalAlign=middle;whiteSpace=wrap;rounded=0;" parent="1" vertex="1">
          <mxGeometry x="720" y="532" width="140" height="20" as="geometry"/>
        </mxCell>
        <mxCell id="iC5oyhufUp80yWhtW3xy-47" value="Control { Right | Left | Burn&amp;nbsp; Fire }" style="text;html=1;strokeColor=none;fillColor=none;align=center;verticalAlign=middle;whiteSpace=wrap;rounded=0;" parent="1" vertex="1">
          <mxGeometry x="675" y="572" width="230" height="20" as="geometry"/>
        </mxCell>
        <mxCell id="iC5oyhufUp80yWhtW3xy-49" value="Player 1" style="text;html=1;strokeColor=none;fillColor=none;align=center;verticalAlign=middle;whiteSpace=wrap;rounded=0;fontStyle=2" parent="1" vertex="1">
          <mxGeometry x="220" y="582" width="60" height="20" as="geometry"/>
        </mxCell>
        <mxCell id="iC5oyhufUp80yWhtW3xy-50" value="Player 2" style="text;html=1;strokeColor=none;fillColor=none;align=center;verticalAlign=middle;whiteSpace=wrap;rounded=0;fontStyle=2" parent="1" vertex="1">
          <mxGeometry x="905" y="562" width="60" height="20" as="geometry"/>
        </mxCell>
        <mxCell id="iC5oyhufUp80yWhtW3xy-55" value="" style="endArrow=none;html=1;" parent="1" edge="1">
          <mxGeometry width="50" height="50" relative="1" as="geometry">
            <mxPoint x="40" y="682" as="sourcePoint"/>
            <mxPoint x="40" y="42" as="targetPoint"/>
          </mxGeometry>
        </mxCell>
        <mxCell id="iC5oyhufUp80yWhtW3xy-56" value="" style="endArrow=none;html=1;" parent="1" edge="1">
          <mxGeometry width="50" height="50" relative="1" as="geometry">
            <mxPoint x="40" y="682" as="sourcePoint"/>
            <mxPoint x="1040" y="682" as="targetPoint"/>
          </mxGeometry>
        </mxCell>
        <mxCell id="iC5oyhufUp80yWhtW3xy-57" value="" style="endArrow=none;html=1;" parent="1" edge="1">
          <mxGeometry width="50" height="50" relative="1" as="geometry">
            <mxPoint x="1040" y="42" as="sourcePoint"/>
            <mxPoint x="1040" y="682" as="targetPoint"/>
          </mxGeometry>
        </mxCell>
        <mxCell id="iC5oyhufUp80yWhtW3xy-58" value="" style="endArrow=none;html=1;" parent="1" edge="1">
          <mxGeometry width="50" height="50" relative="1" as="geometry">
            <mxPoint x="40" y="42" as="sourcePoint"/>
            <mxPoint x="1040" y="42" as="targetPoint"/>
          </mxGeometry>
        </mxCell>
        <mxCell id="iC5oyhufUp80yWhtW3xy-59" value="Multiplayer Spacewar" style="text;html=1;strokeColor=none;fillColor=none;align=center;verticalAlign=middle;whiteSpace=wrap;rounded=0;fontSize=27;" parent="1" vertex="1">
          <mxGeometry x="-100" y="60" width="630" height="20" as="geometry"/>
        </mxCell>
        <mxCell id="iC5oyhufUp80yWhtW3xy-60" value="" style="endArrow=none;html=1;fontSize=27;" parent="1" edge="1">
          <mxGeometry width="50" height="50" relative="1" as="geometry">
            <mxPoint x="1040" y="102" as="sourcePoint"/>
            <mxPoint x="40" y="102" as="targetPoint"/>
          </mxGeometry>
        </mxCell>
        <mxCell id="iC5oyhufUp80yWhtW3xy-61" value="" style="endArrow=none;html=1;fontSize=27;" parent="1" edge="1">
          <mxGeometry width="50" height="50" relative="1" as="geometry">
            <mxPoint x="400" y="102" as="sourcePoint"/>
            <mxPoint x="400" y="42" as="targetPoint"/>
          </mxGeometry>
        </mxCell>
        <mxCell id="iC5oyhufUp80yWhtW3xy-62" value="" style="endArrow=none;html=1;fontSize=27;" parent="1" edge="1">
          <mxGeometry width="50" height="50" relative="1" as="geometry">
            <mxPoint x="1040" y="72" as="sourcePoint"/>
            <mxPoint x="400" y="72" as="targetPoint"/>
          </mxGeometry>
        </mxCell>
        <mxCell id="iC5oyhufUp80yWhtW3xy-63" value="" style="endArrow=none;html=1;fontSize=27;" parent="1" edge="1">
          <mxGeometry width="50" height="50" relative="1" as="geometry">
            <mxPoint x="840" y="102" as="sourcePoint"/>
            <mxPoint x="840" y="42" as="targetPoint"/>
          </mxGeometry>
        </mxCell>
        <mxCell id="iC5oyhufUp80yWhtW3xy-64" value="Mark R Cornwell" style="text;html=1;strokeColor=none;fillColor=none;align=center;verticalAlign=middle;whiteSpace=wrap;rounded=0;fontSize=17;" parent="1" vertex="1">
          <mxGeometry x="850" y="47" width="180" height="20" as="geometry"/>
        </mxCell>
        <mxCell id="iC5oyhufUp80yWhtW3xy-65" value="spacewar-v2.drawio" style="text;html=1;strokeColor=none;fillColor=none;align=center;verticalAlign=middle;whiteSpace=wrap;rounded=0;fontSize=17;" parent="1" vertex="1">
          <mxGeometry x="410" y="47" width="190" height="20" as="geometry"/>
        </mxCell>
        <mxCell id="iC5oyhufUp80yWhtW3xy-66" value="https://github/markcornwell/spacewar/master" style="text;html=1;strokeColor=none;fillColor=none;align=center;verticalAlign=middle;whiteSpace=wrap;rounded=0;fontSize=17;" parent="1" vertex="1">
          <mxGeometry x="440" y="74" width="320" height="28" as="geometry"/>
        </mxCell>
        <mxCell id="iC5oyhufUp80yWhtW3xy-68" value="January 27, 2020" style="text;html=1;strokeColor=none;fillColor=none;align=center;verticalAlign=middle;whiteSpace=wrap;rounded=0;fontSize=17;" parent="1" vertex="1">
          <mxGeometry x="837.5" y="78" width="200" height="20" as="geometry"/>
        </mxCell>
      </root>
    </mxGraphModel>
  </diagram>
  <diagram name="Page-2" id="6qmY6R-QdTtVW79NaYPo">
    <mxGraphModel dx="3648" dy="899" grid="1" gridSize="10" guides="1" tooltips="1" connect="1" arrows="1" fold="1" page="1" pageScale="1" pageWidth="1100" pageHeight="850" math="0" shadow="0">
      <root>
        <mxCell id="Ajm1KAYPgJtNrC5xxtVR-0"/>
        <mxCell id="Ajm1KAYPgJtNrC5xxtVR-1" parent="Ajm1KAYPgJtNrC5xxtVR-0"/>
        <mxCell id="Ajm1KAYPgJtNrC5xxtVR-2" value="" style="rounded=0;whiteSpace=wrap;html=1;" vertex="1" parent="Ajm1KAYPgJtNrC5xxtVR-1">
          <mxGeometry x="-921.53" y="290" width="160" height="460" as="geometry"/>
        </mxCell>
        <mxCell id="Ajm1KAYPgJtNrC5xxtVR-3" value="" style="rounded=0;whiteSpace=wrap;html=1;" vertex="1" parent="Ajm1KAYPgJtNrC5xxtVR-1">
          <mxGeometry x="-1006.53" y="520" width="40" height="50" as="geometry"/>
        </mxCell>
        <mxCell id="Ajm1KAYPgJtNrC5xxtVR-4" value="" style="rounded=0;whiteSpace=wrap;html=1;" vertex="1" parent="Ajm1KAYPgJtNrC5xxtVR-1">
          <mxGeometry x="-1021.53" y="330" width="70" height="40" as="geometry"/>
        </mxCell>
        <mxCell id="Ajm1KAYPgJtNrC5xxtVR-5" value="" style="rounded=0;whiteSpace=wrap;html=1;" vertex="1" parent="Ajm1KAYPgJtNrC5xxtVR-1">
          <mxGeometry x="-996.53" y="370" width="20" height="10" as="geometry"/>
        </mxCell>
        <mxCell id="Ajm1KAYPgJtNrC5xxtVR-6" value="" style="rounded=0;whiteSpace=wrap;html=1;snapToPoint=0;" vertex="1" parent="Ajm1KAYPgJtNrC5xxtVR-1">
          <mxGeometry x="-1004.03" y="522.5" width="35" height="43.5" as="geometry"/>
        </mxCell>
        <mxCell id="Ajm1KAYPgJtNrC5xxtVR-7" value="" style="rounded=0;whiteSpace=wrap;html=1;" vertex="1" parent="Ajm1KAYPgJtNrC5xxtVR-1">
          <mxGeometry x="-996.53" y="433" width="20" height="30" as="geometry"/>
        </mxCell>
        <mxCell id="Ajm1KAYPgJtNrC5xxtVR-8" value="" style="rounded=0;whiteSpace=wrap;html=1;" vertex="1" parent="Ajm1KAYPgJtNrC5xxtVR-1">
          <mxGeometry x="-994.03" y="436" width="15" height="21" as="geometry"/>
        </mxCell>
        <mxCell id="Ajm1KAYPgJtNrC5xxtVR-9" value="Welcome&lt;br&gt;Client" style="rounded=0;whiteSpace=wrap;html=1;" vertex="1" parent="Ajm1KAYPgJtNrC5xxtVR-1">
          <mxGeometry x="-901.53" y="312.5" width="120" height="415" as="geometry"/>
        </mxCell>
        <mxCell id="Ajm1KAYPgJtNrC5xxtVR-10" value="Spacewar&lt;br&gt;Client" style="rounded=0;whiteSpace=wrap;html=1;" vertex="1" parent="Ajm1KAYPgJtNrC5xxtVR-1">
          <mxGeometry x="-891.53" y="600" width="100" height="110" as="geometry"/>
        </mxCell>
        <mxCell id="Ajm1KAYPgJtNrC5xxtVR-11" value="Welcome&lt;br&gt;Server" style="rounded=0;whiteSpace=wrap;html=1;" vertex="1" parent="Ajm1KAYPgJtNrC5xxtVR-1">
          <mxGeometry x="-541.53" y="290" width="120" height="100" as="geometry"/>
        </mxCell>
        <mxCell id="Ajm1KAYPgJtNrC5xxtVR-12" style="edgeStyle=orthogonalEdgeStyle;rounded=0;orthogonalLoop=1;jettySize=auto;html=1;exitX=0.5;exitY=1;exitDx=0;exitDy=0;entryX=0.5;entryY=0;entryDx=0;entryDy=0;" edge="1" parent="Ajm1KAYPgJtNrC5xxtVR-1" source="Ajm1KAYPgJtNrC5xxtVR-13" target="Ajm1KAYPgJtNrC5xxtVR-15">
          <mxGeometry relative="1" as="geometry"/>
        </mxCell>
        <mxCell id="Ajm1KAYPgJtNrC5xxtVR-13" value="Lobby&lt;br&gt;Server" style="rounded=0;whiteSpace=wrap;html=1;" vertex="1" parent="Ajm1KAYPgJtNrC5xxtVR-1">
          <mxGeometry x="-541.53" y="420" width="120" height="58" as="geometry"/>
        </mxCell>
        <mxCell id="Ajm1KAYPgJtNrC5xxtVR-14" value="Spacewar&lt;br&gt;Server" style="rounded=0;whiteSpace=wrap;html=1;" vertex="1" parent="Ajm1KAYPgJtNrC5xxtVR-1">
          <mxGeometry x="-541.53" y="610" width="120" height="90" as="geometry"/>
        </mxCell>
        <mxCell id="Ajm1KAYPgJtNrC5xxtVR-15" value="Instance Manager" style="rounded=0;whiteSpace=wrap;html=1;" vertex="1" parent="Ajm1KAYPgJtNrC5xxtVR-1">
          <mxGeometry x="-541.53" y="507" width="118.47" height="53" as="geometry"/>
        </mxCell>
        <mxCell id="Ajm1KAYPgJtNrC5xxtVR-16" value="" style="endArrow=classic;html=1;exitX=1;exitY=0.5;exitDx=0;exitDy=0;entryX=0;entryY=0.5;entryDx=0;entryDy=0;" edge="1" parent="Ajm1KAYPgJtNrC5xxtVR-1" source="Ajm1KAYPgJtNrC5xxtVR-15" target="D3kGs7h_7CpqP5WuoXMM-0">
          <mxGeometry width="50" height="50" relative="1" as="geometry">
            <mxPoint x="-971.53" y="710" as="sourcePoint"/>
            <mxPoint x="-921.53" y="660" as="targetPoint"/>
          </mxGeometry>
        </mxCell>
        <mxCell id="Ajm1KAYPgJtNrC5xxtVR-17" value="" style="shape=cylinder;whiteSpace=wrap;html=1;boundedLbl=1;backgroundOutline=1;" vertex="1" parent="Ajm1KAYPgJtNrC5xxtVR-1">
          <mxGeometry x="-341.53" y="370" width="91.53" height="80" as="geometry"/>
        </mxCell>
        <mxCell id="Ajm1KAYPgJtNrC5xxtVR-18" value="Sessions&lt;br&gt;Telemetry" style="text;html=1;align=center;verticalAlign=middle;resizable=0;points=[];autosize=1;" vertex="1" parent="Ajm1KAYPgJtNrC5xxtVR-1">
          <mxGeometry x="-329.03" y="403" width="70" height="30" as="geometry"/>
        </mxCell>
        <mxCell id="Ajm1KAYPgJtNrC5xxtVR-19" value="Desktop" style="text;html=1;strokeColor=none;fillColor=none;align=center;verticalAlign=middle;whiteSpace=wrap;rounded=0;" vertex="1" parent="Ajm1KAYPgJtNrC5xxtVR-1">
          <mxGeometry x="-1006.53" y="310" width="40" height="20" as="geometry"/>
        </mxCell>
        <mxCell id="Ajm1KAYPgJtNrC5xxtVR-20" value="Phone" style="text;html=1;strokeColor=none;fillColor=none;align=center;verticalAlign=middle;whiteSpace=wrap;rounded=0;" vertex="1" parent="Ajm1KAYPgJtNrC5xxtVR-1">
          <mxGeometry x="-1006.53" y="413" width="40" height="20" as="geometry"/>
        </mxCell>
        <mxCell id="Ajm1KAYPgJtNrC5xxtVR-21" value="Tablet" style="text;html=1;strokeColor=none;fillColor=none;align=center;verticalAlign=middle;whiteSpace=wrap;rounded=0;" vertex="1" parent="Ajm1KAYPgJtNrC5xxtVR-1">
          <mxGeometry x="-1009.03" y="500" width="40" height="20" as="geometry"/>
        </mxCell>
        <mxCell id="Ajm1KAYPgJtNrC5xxtVR-22" value="" style="endArrow=classic;html=1;exitX=0.01;exitY=0.4;exitDx=0;exitDy=0;entryX=1.017;entryY=0.047;entryDx=0;entryDy=0;entryPerimeter=0;exitPerimeter=0;" edge="1" parent="Ajm1KAYPgJtNrC5xxtVR-1" source="Ajm1KAYPgJtNrC5xxtVR-11" target="Ajm1KAYPgJtNrC5xxtVR-9">
          <mxGeometry width="50" height="50" relative="1" as="geometry">
            <mxPoint x="-971.53" y="720" as="sourcePoint"/>
            <mxPoint x="-921.53" y="670" as="targetPoint"/>
          </mxGeometry>
        </mxCell>
        <mxCell id="Ajm1KAYPgJtNrC5xxtVR-23" value="Browser" style="text;html=1;strokeColor=none;fillColor=none;align=center;verticalAlign=middle;whiteSpace=wrap;rounded=0;" vertex="1" parent="Ajm1KAYPgJtNrC5xxtVR-1">
          <mxGeometry x="-911.53" y="290" width="40" height="20" as="geometry"/>
        </mxCell>
        <mxCell id="Ajm1KAYPgJtNrC5xxtVR-24" value="GET spacewar.html" style="text;html=1;strokeColor=none;fillColor=none;align=center;verticalAlign=middle;whiteSpace=wrap;rounded=0;" vertex="1" parent="Ajm1KAYPgJtNrC5xxtVR-1">
          <mxGeometry x="-706.53" y="290" width="110" height="20" as="geometry"/>
        </mxCell>
        <mxCell id="Ajm1KAYPgJtNrC5xxtVR-25" value="spacewar.html&lt;br&gt;welcome_client.js" style="text;html=1;strokeColor=none;fillColor=none;align=center;verticalAlign=middle;whiteSpace=wrap;rounded=0;" vertex="1" parent="Ajm1KAYPgJtNrC5xxtVR-1">
          <mxGeometry x="-676.53" y="340" width="40" height="20" as="geometry"/>
        </mxCell>
        <mxCell id="Ajm1KAYPgJtNrC5xxtVR-26" value="GET lobby/ls, POST lobby/new&lt;br&gt;PUT lobby/play, DELETE lobby/rm" style="text;html=1;strokeColor=none;fillColor=none;align=center;verticalAlign=middle;whiteSpace=wrap;rounded=0;" vertex="1" parent="Ajm1KAYPgJtNrC5xxtVR-1">
          <mxGeometry x="-781.53" y="413" width="250" height="40" as="geometry"/>
        </mxCell>
        <mxCell id="Ajm1KAYPgJtNrC5xxtVR-27" value="" style="endArrow=classic;html=1;entryX=0.96;entryY=1.05;entryDx=0;entryDy=0;entryPerimeter=0;" edge="1" parent="Ajm1KAYPgJtNrC5xxtVR-1" target="Ajm1KAYPgJtNrC5xxtVR-26">
          <mxGeometry width="50" height="50" relative="1" as="geometry">
            <mxPoint x="-778.53" y="455" as="sourcePoint"/>
            <mxPoint x="-971.53" y="670" as="targetPoint"/>
          </mxGeometry>
        </mxCell>
        <mxCell id="Ajm1KAYPgJtNrC5xxtVR-28" value="JSON { g1 ... gN }" style="text;html=1;strokeColor=none;fillColor=none;align=center;verticalAlign=middle;whiteSpace=wrap;rounded=0;" vertex="1" parent="Ajm1KAYPgJtNrC5xxtVR-1">
          <mxGeometry x="-734.03" y="457" width="162.5" height="20" as="geometry"/>
        </mxCell>
        <mxCell id="Ajm1KAYPgJtNrC5xxtVR-29" value="" style="endArrow=classic;html=1;exitX=1.01;exitY=0.182;exitDx=0;exitDy=0;exitPerimeter=0;" edge="1" parent="Ajm1KAYPgJtNrC5xxtVR-1" source="Ajm1KAYPgJtNrC5xxtVR-10">
          <mxGeometry width="50" height="50" relative="1" as="geometry">
            <mxPoint x="-1021.53" y="780" as="sourcePoint"/>
            <mxPoint x="-541.53" y="620" as="targetPoint"/>
          </mxGeometry>
        </mxCell>
        <mxCell id="Ajm1KAYPgJtNrC5xxtVR-30" value="Connect&amp;nbsp; srv:port_i" style="text;html=1;strokeColor=none;fillColor=none;align=center;verticalAlign=middle;whiteSpace=wrap;rounded=0;" vertex="1" parent="Ajm1KAYPgJtNrC5xxtVR-1">
          <mxGeometry x="-716.53" y="600" width="120" height="20" as="geometry"/>
        </mxCell>
        <mxCell id="Ajm1KAYPgJtNrC5xxtVR-31" value="State { ob1, ..., obK }" style="text;html=1;strokeColor=none;fillColor=none;align=center;verticalAlign=middle;whiteSpace=wrap;rounded=0;" vertex="1" parent="Ajm1KAYPgJtNrC5xxtVR-1">
          <mxGeometry x="-736.53" y="640" width="140" height="20" as="geometry"/>
        </mxCell>
        <mxCell id="Ajm1KAYPgJtNrC5xxtVR-32" value="" style="endArrow=classic;html=1;exitX=0;exitY=0.5;exitDx=0;exitDy=0;entryX=1;entryY=0.5;entryDx=0;entryDy=0;" edge="1" parent="Ajm1KAYPgJtNrC5xxtVR-1" source="Ajm1KAYPgJtNrC5xxtVR-14" target="Ajm1KAYPgJtNrC5xxtVR-10">
          <mxGeometry width="50" height="50" relative="1" as="geometry">
            <mxPoint x="-1021.53" y="780" as="sourcePoint"/>
            <mxPoint x="-971.53" y="730" as="targetPoint"/>
          </mxGeometry>
        </mxCell>
        <mxCell id="Ajm1KAYPgJtNrC5xxtVR-33" value="" style="endArrow=classic;html=1;entryX=0;entryY=0.25;entryDx=0;entryDy=0;" edge="1" parent="Ajm1KAYPgJtNrC5xxtVR-1" target="Ajm1KAYPgJtNrC5xxtVR-11">
          <mxGeometry width="50" height="50" relative="1" as="geometry">
            <mxPoint x="-759.53" y="315" as="sourcePoint"/>
            <mxPoint x="-971.53" y="710" as="targetPoint"/>
          </mxGeometry>
        </mxCell>
        <mxCell id="Ajm1KAYPgJtNrC5xxtVR-34" value="" style="endArrow=classic;html=1;entryX=0;entryY=0.75;entryDx=0;entryDy=0;exitX=1;exitY=0.691;exitDx=0;exitDy=0;exitPerimeter=0;" edge="1" parent="Ajm1KAYPgJtNrC5xxtVR-1" source="Ajm1KAYPgJtNrC5xxtVR-10" target="Ajm1KAYPgJtNrC5xxtVR-14">
          <mxGeometry width="50" height="50" relative="1" as="geometry">
            <mxPoint x="-781.53" y="678" as="sourcePoint"/>
            <mxPoint x="-971.53" y="770" as="targetPoint"/>
          </mxGeometry>
        </mxCell>
        <mxCell id="Ajm1KAYPgJtNrC5xxtVR-35" value="Control { Right | Left | Burn&amp;nbsp; Fire }" style="text;html=1;strokeColor=none;fillColor=none;align=center;verticalAlign=middle;whiteSpace=wrap;rounded=0;" vertex="1" parent="Ajm1KAYPgJtNrC5xxtVR-1">
          <mxGeometry x="-761.53" y="680" width="230" height="20" as="geometry"/>
        </mxCell>
        <mxCell id="Ajm1KAYPgJtNrC5xxtVR-36" value="" style="endArrow=classic;startArrow=classic;html=1;exitX=1;exitY=0.5;exitDx=0;exitDy=0;entryX=0;entryY=0.5;entryDx=0;entryDy=0;" edge="1" parent="Ajm1KAYPgJtNrC5xxtVR-1" source="Ajm1KAYPgJtNrC5xxtVR-13" target="Ajm1KAYPgJtNrC5xxtVR-17">
          <mxGeometry width="50" height="50" relative="1" as="geometry">
            <mxPoint x="-361.53" y="520" as="sourcePoint"/>
            <mxPoint x="-311.53" y="470" as="targetPoint"/>
            <Array as="points">
              <mxPoint x="-381.53" y="449"/>
              <mxPoint x="-381.53" y="410"/>
            </Array>
          </mxGeometry>
        </mxCell>
        <mxCell id="Ajm1KAYPgJtNrC5xxtVR-37" value="" style="shape=cylinder;whiteSpace=wrap;html=1;boundedLbl=1;backgroundOutline=1;" vertex="1" parent="Ajm1KAYPgJtNrC5xxtVR-1">
          <mxGeometry x="-204.8" y="490" width="96.53" height="88.5" as="geometry"/>
        </mxCell>
        <mxCell id="Ajm1KAYPgJtNrC5xxtVR-38" value="Container Repository&lt;br&gt;(Docker Hub)" style="text;html=1;strokeColor=none;fillColor=none;align=center;verticalAlign=middle;whiteSpace=wrap;rounded=0;" vertex="1" parent="Ajm1KAYPgJtNrC5xxtVR-1">
          <mxGeometry x="-206.53" y="534.25" width="100" height="20" as="geometry"/>
        </mxCell>
        <mxCell id="Ajm1KAYPgJtNrC5xxtVR-40" value="Pulls" style="text;html=1;strokeColor=none;fillColor=none;align=center;verticalAlign=middle;whiteSpace=wrap;rounded=0;" vertex="1" parent="Ajm1KAYPgJtNrC5xxtVR-1">
          <mxGeometry x="-259.03" y="510" width="40" height="20" as="geometry"/>
        </mxCell>
        <mxCell id="Ajm1KAYPgJtNrC5xxtVR-41" value="Spacewar&lt;br&gt;Client" style="rounded=0;whiteSpace=wrap;html=1;" vertex="1" parent="Ajm1KAYPgJtNrC5xxtVR-1">
          <mxGeometry x="-204.03" y="600" width="100" height="100" as="geometry"/>
        </mxCell>
        <mxCell id="Ajm1KAYPgJtNrC5xxtVR-42" value="" style="endArrow=classic;html=1;" edge="1" parent="Ajm1KAYPgJtNrC5xxtVR-1">
          <mxGeometry width="50" height="50" relative="1" as="geometry">
            <mxPoint x="-205.53" y="624" as="sourcePoint"/>
            <mxPoint x="-418.53" y="624" as="targetPoint"/>
          </mxGeometry>
        </mxCell>
        <mxCell id="Ajm1KAYPgJtNrC5xxtVR-43" value="" style="endArrow=classic;html=1;entryX=-0.035;entryY=0.57;entryDx=0;entryDy=0;entryPerimeter=0;" edge="1" parent="Ajm1KAYPgJtNrC5xxtVR-1" target="Ajm1KAYPgJtNrC5xxtVR-41">
          <mxGeometry width="50" height="50" relative="1" as="geometry">
            <mxPoint x="-420.53" y="655" as="sourcePoint"/>
            <mxPoint x="-291.53" y="655" as="targetPoint"/>
          </mxGeometry>
        </mxCell>
        <mxCell id="Ajm1KAYPgJtNrC5xxtVR-44" value="" style="endArrow=classic;html=1;entryX=1;entryY=0.75;entryDx=0;entryDy=0;" edge="1" parent="Ajm1KAYPgJtNrC5xxtVR-1" target="Ajm1KAYPgJtNrC5xxtVR-14">
          <mxGeometry width="50" height="50" relative="1" as="geometry">
            <mxPoint x="-203.53" y="678" as="sourcePoint"/>
            <mxPoint x="-921.53" y="770" as="targetPoint"/>
          </mxGeometry>
        </mxCell>
        <mxCell id="Ajm1KAYPgJtNrC5xxtVR-45" value="Connect&amp;nbsp; srv:port_i" style="text;html=1;strokeColor=none;fillColor=none;align=center;verticalAlign=middle;whiteSpace=wrap;rounded=0;" vertex="1" parent="Ajm1KAYPgJtNrC5xxtVR-1">
          <mxGeometry x="-361.53" y="606" width="120" height="20" as="geometry"/>
        </mxCell>
        <mxCell id="Ajm1KAYPgJtNrC5xxtVR-46" value="State { ob1, ..., obK }" style="text;html=1;strokeColor=none;fillColor=none;align=center;verticalAlign=middle;whiteSpace=wrap;rounded=0;" vertex="1" parent="Ajm1KAYPgJtNrC5xxtVR-1">
          <mxGeometry x="-371.53" y="640" width="140" height="20" as="geometry"/>
        </mxCell>
        <mxCell id="Ajm1KAYPgJtNrC5xxtVR-47" value="Control { Right | Left | Burn&amp;nbsp; Fire }" style="text;html=1;strokeColor=none;fillColor=none;align=center;verticalAlign=middle;whiteSpace=wrap;rounded=0;" vertex="1" parent="Ajm1KAYPgJtNrC5xxtVR-1">
          <mxGeometry x="-416.53" y="680" width="230" height="20" as="geometry"/>
        </mxCell>
        <mxCell id="Ajm1KAYPgJtNrC5xxtVR-48" value="Player 1" style="text;html=1;strokeColor=none;fillColor=none;align=center;verticalAlign=middle;whiteSpace=wrap;rounded=0;fontStyle=2" vertex="1" parent="Ajm1KAYPgJtNrC5xxtVR-1">
          <mxGeometry x="-871.53" y="690" width="60" height="20" as="geometry"/>
        </mxCell>
        <mxCell id="Ajm1KAYPgJtNrC5xxtVR-49" value="Player 2" style="text;html=1;strokeColor=none;fillColor=none;align=center;verticalAlign=middle;whiteSpace=wrap;rounded=0;fontStyle=2" vertex="1" parent="Ajm1KAYPgJtNrC5xxtVR-1">
          <mxGeometry x="-186.53" y="670" width="60" height="20" as="geometry"/>
        </mxCell>
        <mxCell id="Ajm1KAYPgJtNrC5xxtVR-50" value="" style="endArrow=none;html=1;" edge="1" parent="Ajm1KAYPgJtNrC5xxtVR-1">
          <mxGeometry width="50" height="50" relative="1" as="geometry">
            <mxPoint x="-1051.53" y="790" as="sourcePoint"/>
            <mxPoint x="-1051.53" y="150" as="targetPoint"/>
          </mxGeometry>
        </mxCell>
        <mxCell id="Ajm1KAYPgJtNrC5xxtVR-51" value="" style="endArrow=none;html=1;" edge="1" parent="Ajm1KAYPgJtNrC5xxtVR-1">
          <mxGeometry width="50" height="50" relative="1" as="geometry">
            <mxPoint x="-1051.53" y="790" as="sourcePoint"/>
            <mxPoint x="-51.53" y="790" as="targetPoint"/>
          </mxGeometry>
        </mxCell>
        <mxCell id="Ajm1KAYPgJtNrC5xxtVR-52" value="" style="endArrow=none;html=1;" edge="1" parent="Ajm1KAYPgJtNrC5xxtVR-1">
          <mxGeometry width="50" height="50" relative="1" as="geometry">
            <mxPoint x="-51.53" y="150" as="sourcePoint"/>
            <mxPoint x="-51.53" y="790" as="targetPoint"/>
          </mxGeometry>
        </mxCell>
        <mxCell id="Ajm1KAYPgJtNrC5xxtVR-53" value="" style="endArrow=none;html=1;" edge="1" parent="Ajm1KAYPgJtNrC5xxtVR-1">
          <mxGeometry width="50" height="50" relative="1" as="geometry">
            <mxPoint x="-1051.53" y="150" as="sourcePoint"/>
            <mxPoint x="-51.53" y="150" as="targetPoint"/>
          </mxGeometry>
        </mxCell>
        <mxCell id="Ajm1KAYPgJtNrC5xxtVR-54" value="Multiplayer Spacewar" style="text;html=1;strokeColor=none;fillColor=none;align=center;verticalAlign=middle;whiteSpace=wrap;rounded=0;fontSize=27;" vertex="1" parent="Ajm1KAYPgJtNrC5xxtVR-1">
          <mxGeometry x="-1180" y="166" width="630" height="20" as="geometry"/>
        </mxCell>
        <mxCell id="Ajm1KAYPgJtNrC5xxtVR-55" value="" style="endArrow=none;html=1;fontSize=27;" edge="1" parent="Ajm1KAYPgJtNrC5xxtVR-1">
          <mxGeometry width="50" height="50" relative="1" as="geometry">
            <mxPoint x="-51.53" y="210" as="sourcePoint"/>
            <mxPoint x="-1051.53" y="210" as="targetPoint"/>
          </mxGeometry>
        </mxCell>
        <mxCell id="Ajm1KAYPgJtNrC5xxtVR-56" value="" style="endArrow=none;html=1;fontSize=27;" edge="1" parent="Ajm1KAYPgJtNrC5xxtVR-1">
          <mxGeometry width="50" height="50" relative="1" as="geometry">
            <mxPoint x="-691.53" y="210" as="sourcePoint"/>
            <mxPoint x="-691.53" y="150" as="targetPoint"/>
          </mxGeometry>
        </mxCell>
        <mxCell id="Ajm1KAYPgJtNrC5xxtVR-57" value="" style="endArrow=none;html=1;fontSize=27;" edge="1" parent="Ajm1KAYPgJtNrC5xxtVR-1">
          <mxGeometry width="50" height="50" relative="1" as="geometry">
            <mxPoint x="-51.53" y="180" as="sourcePoint"/>
            <mxPoint x="-691.53" y="180" as="targetPoint"/>
          </mxGeometry>
        </mxCell>
        <mxCell id="Ajm1KAYPgJtNrC5xxtVR-58" value="" style="endArrow=none;html=1;fontSize=27;" edge="1" parent="Ajm1KAYPgJtNrC5xxtVR-1">
          <mxGeometry width="50" height="50" relative="1" as="geometry">
            <mxPoint x="-251.53" y="210" as="sourcePoint"/>
            <mxPoint x="-251.53" y="150" as="targetPoint"/>
          </mxGeometry>
        </mxCell>
        <mxCell id="Ajm1KAYPgJtNrC5xxtVR-59" value="Mark R Cornwell" style="text;html=1;strokeColor=none;fillColor=none;align=center;verticalAlign=middle;whiteSpace=wrap;rounded=0;fontSize=17;" vertex="1" parent="Ajm1KAYPgJtNrC5xxtVR-1">
          <mxGeometry x="-241.53" y="155" width="180" height="20" as="geometry"/>
        </mxCell>
        <mxCell id="Ajm1KAYPgJtNrC5xxtVR-60" value="spacewar-v2.drawio" style="text;html=1;strokeColor=none;fillColor=none;align=center;verticalAlign=middle;whiteSpace=wrap;rounded=0;fontSize=17;" vertex="1" parent="Ajm1KAYPgJtNrC5xxtVR-1">
          <mxGeometry x="-681.53" y="155" width="190" height="20" as="geometry"/>
        </mxCell>
        <mxCell id="Ajm1KAYPgJtNrC5xxtVR-61" value="https://github/markcornwell/spacewar/master" style="text;html=1;strokeColor=none;fillColor=none;align=center;verticalAlign=middle;whiteSpace=wrap;rounded=0;fontSize=17;" vertex="1" parent="Ajm1KAYPgJtNrC5xxtVR-1">
          <mxGeometry x="-651.53" y="182" width="320" height="28" as="geometry"/>
        </mxCell>
        <mxCell id="Ajm1KAYPgJtNrC5xxtVR-62" value="January 27, 2020" style="text;html=1;strokeColor=none;fillColor=none;align=center;verticalAlign=middle;whiteSpace=wrap;rounded=0;fontSize=17;" vertex="1" parent="Ajm1KAYPgJtNrC5xxtVR-1">
          <mxGeometry x="-254.03" y="186" width="200" height="20" as="geometry"/>
        </mxCell>
        <mxCell id="D3kGs7h_7CpqP5WuoXMM-0" value="Docker" style="rounded=0;whiteSpace=wrap;html=1;" vertex="1" parent="Ajm1KAYPgJtNrC5xxtVR-1">
          <mxGeometry x="-310" y="507" width="50.97" height="53" as="geometry"/>
        </mxCell>
        <mxCell id="D3kGs7h_7CpqP5WuoXMM-3" value="" style="endArrow=classic;html=1;entryX=0;entryY=0.5;entryDx=0;entryDy=0;exitX=1;exitY=0.5;exitDx=0;exitDy=0;" edge="1" parent="Ajm1KAYPgJtNrC5xxtVR-1" source="D3kGs7h_7CpqP5WuoXMM-0" target="Ajm1KAYPgJtNrC5xxtVR-37">
          <mxGeometry width="50" height="50" relative="1" as="geometry">
            <mxPoint x="-1180" y="1020" as="sourcePoint"/>
            <mxPoint x="-1130" y="970" as="targetPoint"/>
          </mxGeometry>
        </mxCell>
        <mxCell id="D3kGs7h_7CpqP5WuoXMM-5" value="" style="endArrow=classic;html=1;entryX=0.75;entryY=0;entryDx=0;entryDy=0;exitX=0.5;exitY=1;exitDx=0;exitDy=0;dashed=1;" edge="1" parent="Ajm1KAYPgJtNrC5xxtVR-1" source="D3kGs7h_7CpqP5WuoXMM-0" target="Ajm1KAYPgJtNrC5xxtVR-14">
          <mxGeometry width="50" height="50" relative="1" as="geometry">
            <mxPoint x="-1180" y="1020" as="sourcePoint"/>
            <mxPoint x="-1130" y="970" as="targetPoint"/>
            <Array as="points">
              <mxPoint x="-285" y="580"/>
              <mxPoint x="-452" y="580"/>
            </Array>
          </mxGeometry>
        </mxCell>
        <mxCell id="D3kGs7h_7CpqP5WuoXMM-6" value="run / start / stop" style="text;html=1;strokeColor=none;fillColor=none;align=center;verticalAlign=middle;whiteSpace=wrap;rounded=0;" vertex="1" parent="Ajm1KAYPgJtNrC5xxtVR-1">
          <mxGeometry x="-421.53" y="510" width="100" height="20" as="geometry"/>
        </mxCell>
      </root>
    </mxGraphModel>
  </diagram>
</mxfile>
